<?xml version="1.0" encoding="UTF-8"?>
<svg id="Layer_1" data-name="Layer 1" xmlns="http://www.w3.org/2000/svg" viewBox="0 0 138.81 171.02">
  <defs>
    <style>
      .cls-1 {
        fill: #384745;
      }

      .cls-1, .cls-2 {
        stroke-width: 0px;
      }

      .cls-2 {
        fill: #2e68e9;
      }
    </style>
  </defs>
  <circle class="cls-2" cx="36.32" cy="76.39" r="7"/>
  <path class="cls-2" d="m72.87,58.68c-.21,0-.42-.01-.62-.03,1.85,3.98,2.97,8.26,3.31,12.64h14.97c2.15-3.8,5.65-6.66,9.79-8.03v-4.58h-27.44Z"/>
  <path class="cls-2" d="m43.52,27.74v9.65c8.05,1.09,15.51,4.8,21.25,10.55l-4.89-20.2h-16.36Z"/>
  <circle class="cls-2" cx="105.75" cy="79.89" r="3.5"/>
  <path class="cls-2" d="m123,0H15.81C7.87.02,1.44,6.45,1.42,14.39v82.58c.02,7.94,6.45,14.37,14.39,14.39h107.19c7.94-.02,14.37-6.45,14.39-14.39V14.39c-.02-7.94-6.45-14.37-14.39-14.39ZM36.32,97.39c-11.6,0-21-9.4-21-21s9.4-21,21-21,21,9.4,21,21h0c-.01,11.59-9.41,20.99-21,21Zm69.43,0c-7.58,0-14.3-4.89-16.64-12.1h-20.44c-3.86,0-7-3.13-7-6.99v-4.11c-.02-12.77-10.37-23.13-23.14-23.14h-11.51c-3.87,0-7-3.13-7-7s3.13-7,7-7h2.5v-9.31h-2.5c-3.87,0-7-3.13-7-7s3.13-7,7-7h38.37c3.23,0,6.04,2.21,6.8,5.35l6.19,25.58h26.42c5.25,0,9.51,4.26,9.51,9.51v10.45c8.43,4.73,11.43,15.39,6.7,23.82-3.1,5.52-8.93,8.94-15.26,8.94Z"/>
  <g>
    <g>
      <path class="cls-1" d="m0,132.36h15.85c7.53,0,12.6,3.65,12.6,10.72,0,5.76-3.93,9.24-7.75,10.43,1.14.97,2,2.28,2.68,3.65,1.6,3.25,2.68,6.84,6.04,6.84.86,0,1.54-.28,1.54-.28l-.74,6.78s-2.05.51-3.82.51c-4.56,0-7.18-1.77-9.86-7.87-1.14-2.74-2.74-7.53-4.85-7.53h-2.17v15.22H0v-38.49Zm9.52,6.9v9.46h3.42c2.74,0,5.93-.85,5.93-4.96,0-3.36-2.17-4.5-4.79-4.5h-4.56Z"/>
      <path class="cls-1" d="m34.95,132.36h9.52v10.78c0,1.2-.17,2.96-.28,4.28h.23c.63-.97,1.43-2.45,2.39-3.59l9.41-11.46h10.26l-12.54,15.11,13.23,23.38h-10.95l-8.9-16.13-2.85,3.48v12.66h-9.52v-38.49Z"/>
      <path class="cls-1" d="m70.19,132.36h25.49v7.07h-15.96v8.27h13.4v7.07h-13.4v9.01h16.53v7.07h-26.06v-38.49Z"/>
    </g>
    <path class="cls-1" d="m138.81,170.71h-28.42v-6.75l9.56-9.37c2.73-2.77,4.52-4.66,5.36-5.67.84-1.01,1.42-1.88,1.75-2.61.33-.73.5-1.49.5-2.28,0-.99-.33-1.76-.99-2.34-.66-.57-1.59-.86-2.79-.86s-2.48.34-3.74,1.03c-1.26.68-2.68,1.69-4.27,3.02l-5.81-6.59c2.02-1.75,3.71-3,5.09-3.75,1.38-.75,2.87-1.33,4.49-1.73,1.62-.4,3.43-.6,5.45-.6,2.54,0,4.8.43,6.79,1.3,1.99.87,3.54,2.1,4.63,3.7s1.65,3.4,1.65,5.38c0,1.49-.19,2.86-.58,4.13-.38,1.26-.98,2.5-1.78,3.72-.8,1.22-1.87,2.5-3.2,3.85-1.33,1.35-4.17,3.91-8.51,7.68v.26h14.81v8.46Z"/>
  </g>
</svg>